<?xml version="1.0" encoding="utf-8"?>
<!-- Generator: Adobe Illustrator 26.5.0, SVG Export Plug-In . SVG Version: 6.00 Build 0)  -->
<svg version="1.1" id="Layer_1" xmlns="http://www.w3.org/2000/svg" xmlns:xlink="http://www.w3.org/1999/xlink" x="0px" y="0px"
	 viewBox="0 0 800 800" style="enable-background:new 0 0 800 800;" xml:space="preserve">
<style type="text/css">
	.st0{fill-rule:evenodd;clip-rule:evenodd;fill:#2E3148;}
	.st1{fill-rule:evenodd;clip-rule:evenodd;fill:#1B1E36;}
	.st2{fill:#6F7390;}
	.st3{fill-rule:evenodd;clip-rule:evenodd;fill:#B7B9C8;}
</style>
<path class="st0" d="M400,0.8c220.5,0,399.2,178.7,399.2,399.2c0,220.5-178.7,399.2-399.2,399.2C179.5,799.2,0.8,620.5,0.8,400
	C0.8,179.5,179.5,0.8,400,0.8z"/>
<path class="st1" d="M399.2,169.7c127.2,0,230.3,103.1,230.3,230.3c0,127.2-103.1,230.3-230.3,230.3
	C272,630.3,168.9,527.2,168.9,400C168.9,272.8,272,169.7,399.2,169.7z"/>
<path class="st2" d="M401.2,749.2c-10.4,0-20.5-9.2-30-27.3c-9.2-17.6-17.5-42.8-24.7-74.8c-14.7-66-22.8-153.7-22.8-247.1
	c0-93.3,8.1-181.1,22.8-247.1c7.1-32.1,15.4-57.2,24.7-74.8c9.5-18.1,19.6-27.3,30-27.3c10.4,0,20.5,9.2,30,27.3
	c9.2,17.6,17.5,42.8,24.7,74.8c14.7,66,22.8,153.7,22.8,247.1c0,93.3-8.1,181.1-22.8,247.1c-7.1,32.1-15.4,57.2-24.7,74.8
	C421.6,740,411.5,749.2,401.2,749.2z M401.2,65.8c-2.3,0-8.7,4-16.7,19.3c-8.5,16.2-16.6,40.8-23.3,71.1
	c-14.4,65-22.4,151.5-22.4,243.8c0,92.3,8,178.9,22.4,243.8c6.7,30.3,14.8,54.9,23.3,71.1c8,15.3,14.4,19.3,16.7,19.3
	c2.3,0,8.7-4,16.7-19.3c8.5-16.2,16.6-40.8,23.3-71.1c14.4-65,22.4-151.5,22.4-243.8c0-92.3-8-178.9-22.4-243.8
	c-6.7-30.3-14.8-54.9-23.3-71.1C409.9,69.8,403.5,65.8,401.2,65.8z"/>
<path class="st2" d="M132.3,587c-17.6,0-29-4.2-33.7-12.4c-5.2-9-2.3-22.3,8.7-39.6c10.6-16.8,28.3-36.6,52.5-58.8
	c49.9-45.7,121.9-96.6,202.7-143.2c80.9-46.7,161-83.6,225.5-103.9c31.4-9.9,57.3-15.3,77.2-16.1c20.5-0.8,33.5,3.3,38.6,12.3
	c5.2,9,2.3,22.3-8.7,39.6c-10.6,16.8-28.3,36.6-52.5,58.8c-49.9,45.7-121.9,96.6-202.7,143.2c-80.9,46.7-161,83.6-225.5,103.9
	c-31.4,9.9-57.3,15.3-77.2,16.1C135.5,587,133.9,587,132.3,587z M670,228c-1.3,0-2.7,0-4.2,0.1c-18.3,0.7-43.6,6-73.3,15.4
	c-63.5,20-142.5,56.4-222.5,102.5c-80,46.1-151,96.3-200.1,141.3c-22.9,21-40.2,40.3-50,55.7c-9.2,14.6-9.5,22.1-8.4,24.1
	c1.1,2,7.8,5.5,25.1,4.8c18.3-0.7,43.6-6,73.3-15.4c63.5-20,142.5-56.4,222.5-102.5c80-46.1,151-96.3,200.1-141.3
	c22.9-21,40.2-40.3,50-55.7c9.2-14.6,9.5-22.1,8.4-24.1l0,0C689.8,231.1,684.1,228,670,228z"/>
<path class="st2" d="M670.1,587c-1.6,0-3.2,0-4.9-0.1c-19.9-0.8-45.8-6.2-77.2-16.1c-64.5-20.3-144.6-57.2-225.5-103.9
	c-80.9-46.7-152.9-97.5-202.7-143.2c-24.2-22.2-41.9-42-52.5-58.8c-10.9-17.3-13.9-30.6-8.7-39.6c5.2-9,18.2-13.1,38.6-12.3
	c19.9,0.8,45.8,6.2,77.2,16.1C278.9,249.5,359,286.3,439.9,333c80.9,46.7,152.9,97.5,202.7,143.2c24.2,22.2,41.9,42,52.5,58.8
	c10.9,17.3,13.9,30.6,8.7,39.6l0,0C699,582.9,687.7,587,670.1,587z M132.4,228c-14.1,0-19.8,3.1-20.8,4.9c-1.1,2-0.8,9.5,8.4,24.1
	c9.8,15.4,27,34.7,50,55.7C218.9,357.7,290,407.9,370,454c80,46.1,159,82.6,222.5,102.5c29.7,9.3,55,14.7,73.3,15.4
	c17.2,0.7,23.9-2.8,25.1-4.8l0,0c1.1-2,0.8-9.5-8.4-24.1c-9.8-15.4-27-34.7-50-55.7c-49.1-45-120.1-95.2-200.1-141.3
	c-80-46.1-159-82.6-222.5-102.5c-29.7-9.3-55-14.7-73.3-15.4C135.1,228,133.7,228,132.4,228z"/>
<path class="st3" d="M177.8,302.1c13.6,0,24.6,11,24.6,24.6s-11,24.6-24.6,24.6c-13.6,0-24.6-11-24.6-24.6S164.2,302.1,177.8,302.1z
	"/>
<path class="st3" d="M568.5,217.9c13.6,0,24.6,11,24.6,24.6c0,13.6-11,24.6-24.6,24.6c-13.6,0-24.6-11-24.6-24.6
	C543.9,228.9,554.9,217.9,568.5,217.9z"/>
<path class="st3" d="M351.6,603.9c13.6,0,24.6,11,24.6,24.6s-11,24.6-24.6,24.6s-24.6-11-24.6-24.6S338.1,603.9,351.6,603.9z"/>
<path class="st3" d="M399.8,358.2c23,0,41.6,18.6,41.6,41.6c0,23-18.6,41.6-41.6,41.6c-23,0-41.6-18.6-41.6-41.6
	C358.2,376.8,376.8,358.2,399.8,358.2z"/>
</svg>
