<svg width="25" height="25" viewBox="0 0 25 25" fill="none" xmlns="http://www.w3.org/2000/svg">
<path d="M7.79784 11.5918C5.29296 15.0537 2.10448 17.002 0.683581 15.9473C-0.7422 14.8877 0.136706 11.2305 2.64647 7.76858C5.15135 4.30667 8.33983 2.35842 9.76073 3.41311C11.1816 4.4678 10.3027 8.12991 7.79784 11.5918ZM24.9463 8.79397C21.3428 14.8194 15.5762 17.959 12.0312 15.8057C10.8105 15.0635 10.0146 13.794 9.63866 12.2022C7.99803 15.3662 5.10741 17.7588 1.62596 18.7061C4.0576 21.6016 7.68553 23.4375 11.7334 23.4375C19.0576 23.4375 24.9951 17.4268 24.9951 10.0147C25 9.59964 24.9805 9.19436 24.9463 8.79397Z" fill="white"/>
</svg>
