<svg width="25" height="25" viewBox="0 0 25 25" fill="none" xmlns="http://www.w3.org/2000/svg">
<path d="M22.5195 6.25H3.90625C3.47461 6.25 3.125 5.90039 3.125 5.46875C3.125 5.03711 3.47461 4.6875 3.90625 4.6875H22.6562C23.0879 4.6875 23.4375 4.33789 23.4375 3.90625C23.4375 2.61182 22.3882 1.5625 21.0938 1.5625H3.125C1.39893 1.5625 0 2.96143 0 4.6875V20.3125C0 22.0386 1.39893 23.4375 3.125 23.4375H22.5195C23.8877 23.4375 25 22.3862 25 21.0938V8.59375C25 7.30127 23.8877 6.25 22.5195 6.25ZM20.3125 16.4062C19.4497 16.4062 18.75 15.7065 18.75 14.8438C18.75 13.981 19.4497 13.2812 20.3125 13.2812C21.1753 13.2812 21.875 13.981 21.875 14.8438C21.875 15.7065 21.1753 16.4062 20.3125 16.4062Z" fill="white"/>
</svg>
